<svg width="49" height="48" viewBox="0 0 49 48" fill="none" xmlns="http://www.w3.org/2000/svg">
<path d="M24.5 1C10.925 1 3.5 9.55 3.5 20.875V46H45.5V20.875C45.5 4.075 34.1 4.375 34.1 4.375C34.1 4.375 33.275 1 24.5 1Z" fill="#594640"/>
<path d="M8.8 30.775C8.8 30.775 5.5 29.95 5.5 25.15C5.5 21.325 7.975 20.725 7.975 20.725C30.625 20.65 37 16 37 16C37 16 38.425 20.65 41.95 20.65C41.95 20.65 44.5 21.1 44.5 25.075C44.5 29.875 41.125 30.7 41.125 30.7C41.05 37.975 31.075 46.75 25 46.75C18.925 46.75 8.8 37.975 8.8 30.775Z" fill="#FFE1BD"/>
<path d="M24.2679 35.25C21.1179 35.25 19.5429 33 21.1179 33H27.4179C28.9929 33 27.4179 35.25 24.2679 35.25Z" fill="#E6B796"/>
<path d="M29.4816 28.6123C28.3566 28.6123 28.5066 27.2623 28.5066 27.2623C30.1566 18.6373 39.7566 23.2123 39.7566 23.2123C40.5066 24.7123 38.0316 28.3873 37.3566 28.6123C34.2066 29.3623 29.4816 28.6123 29.4816 28.6123Z" fill="#F5F5F5"/>
<path d="M37.25 25.375C37.25 27.25 35.75 28.75 33.875 28.75C32 28.75 30.5 27.25 30.5 25.375C30.5 23.5 32 22 33.875 22C35.75 22 37.25 23.5 37.25 25.375Z" fill="#6235A8"/>
<path d="M33.625 26.25C34.2463 26.25 34.75 25.7463 34.75 25.125C34.75 24.5037 34.2463 24 33.625 24C33.0037 24 32.5 24.5037 32.5 25.125C32.5 25.7463 33.0037 26.25 33.625 26.25Z" fill="#2B2925"/>
<path d="M28.5 26.7931C30.15 16.5181 38.625 23.3431 42 21.9181C38.625 25.1431 31.875 18.2431 28.5 26.7931Z" fill="#3B3226"/>
<path d="M19.915 28.6123C21.04 28.6123 20.89 27.2623 20.89 27.2623C19.24 18.6373 9.64004 23.2123 9.64004 23.2123C8.89004 24.7123 11.365 28.3873 12.04 28.6123C15.19 29.3623 19.915 28.6123 19.915 28.6123Z" fill="#F5F5F5"/>
<path d="M12.5 25.375C12.5 27.25 14 28.75 15.875 28.75C17.75 28.75 19.25 27.25 19.25 25.375C19.25 23.5 17.75 22 15.875 22C14 22 12.5 23.5 12.5 25.375Z" fill="#6235A8"/>
<path d="M21 26.7931C19.35 16.5181 10.875 23.3431 7.5 21.9181C10.875 25.1431 17.625 18.2431 21 26.7931Z" fill="#3B3226"/>
<path d="M25 39.125L17.5 38C22 44.375 28 44.375 32.5 38L25 39.125Z" fill="#F085A9"/>
<path d="M27.925 37.267C25.75 36.442 25 37.792 25 37.792C25 37.792 24.25 36.442 22.075 37.267C20.35 37.942 17.5 37.567 17.5 37.567C20.5 38.242 20.875 39.442 25 39.442C29.125 39.442 29.5 38.167 32.5 37.567C32.5 37.567 29.65 37.942 27.925 37.267Z" fill="#D46C8F"/>
<path d="M15.625 26.25C16.2463 26.25 16.75 25.7463 16.75 25.125C16.75 24.5037 16.2463 24 15.625 24C15.0037 24 14.5 24.5037 14.5 25.125C14.5 25.7463 15.0037 26.25 15.625 26.25Z" fill="#2B2925"/>
<path d="M44.2031 10.725C43.6031 10.425 42.7781 10.65 42.3281 11.25C42.1781 10.575 41.8031 10.05 41.3531 9.675C41.8031 9.675 41.9531 9.45 41.8031 9.15C41.6531 8.625 41.4281 8.025 40.3781 7.275C40.3781 6.075 39.4781 4.95 39.4781 4.95C39.3281 4.8 39.0281 4.8 38.8781 5.025C38.8781 5.1 38.2031 6.225 38.5031 7.5C37.3781 8.475 37.4531 9.525 37.5281 9.75C37.3781 9.75 36.2531 10.5 35.9531 11.925C35.3531 11.925 34.9781 12.375 34.9781 12.375C35.2031 10.725 33.9281 9.075 31.9781 9.15C31.4531 6.225 28.1531 5.25 27.5531 8.1C27.1781 7.35 26.3531 6.75 26.3531 6.75C26.6531 5.325 25.4531 3 24.7781 3C24.1031 3 22.9781 5.325 23.2031 6.75C23.2031 6.75 22.3781 7.35 21.9281 8.025C21.3281 5.175 17.9531 6.15 17.5031 9.075C15.5531 9 14.2781 10.575 14.5031 12.3C14.5031 12.3 14.1281 11.925 13.5281 11.85C13.2281 10.425 12.1781 9.675 11.9531 9.675C12.0281 9.525 12.1031 8.4 10.9781 7.425C11.2781 6.15 10.6031 5.025 10.6031 4.95C10.4531 4.725 10.1531 4.725 10.0031 4.875C10.0031 4.875 9.10314 6 9.10314 7.2C8.05314 7.875 7.82814 8.475 7.67814 9.075C7.60314 9.375 7.75314 9.675 8.12814 9.6C7.67814 9.975 7.37814 10.5 7.15314 11.175C6.70314 10.575 5.87814 10.35 5.27814 10.65C4.52814 11.025 4.30314 12 4.67814 12.825C5.12814 13.875 6.47814 13.95 7.15314 13.2C7.45314 14.85 9.17814 15.525 10.5281 14.4C10.3031 15.15 11.5781 15.15 12.9281 13.95C13.3781 14.25 14.2031 14.175 14.5031 14.025C14.4281 14.925 14.8781 16.35 16.4531 16.35C17.5031 16.35 17.9531 15.6 17.8781 15C18.4781 15.225 19.6031 15.45 20.4281 14.925C22.0031 16.275 23.1281 16.5 23.2031 15.675C23.6531 16.05 24.2531 16.275 24.7781 16.275C25.3031 16.275 25.9031 16.05 26.3531 15.675C26.4281 16.425 27.5531 16.275 29.1281 14.925C29.9531 15.45 31.0031 15.3 31.6781 15C31.6031 15.75 32.0531 16.5 33.1031 16.5C34.6031 16.5 35.0531 15.075 35.0531 14.175C35.3531 14.325 36.1781 14.325 36.6281 14.1C38.0531 15.3 39.2531 15.225 39.0281 14.55C40.3781 15.675 42.1031 15 42.4031 13.35C43.0781 14.1 44.4281 14.025 44.8781 12.975C45.2531 12.075 44.9531 11.175 44.2031 10.725ZM8.57814 8.925C8.72814 8.4 9.25314 8.1 9.25314 8.1L9.40314 8.7C9.32814 8.7 8.95314 9 8.57814 8.925ZM10.3031 6.975H9.85314C9.85314 6.975 9.92814 6.3 10.2281 6C10.3781 6.45 10.3031 6.975 10.3031 6.975ZM10.3781 8.85L10.6781 8.25C10.6781 8.25 11.0531 8.625 11.1281 9.225C10.7531 9.225 10.3781 8.85 10.3781 8.85ZM10.9781 9.975C11.1281 9.975 11.5031 10.05 11.5031 10.05C11.5031 10.05 11.3531 10.275 11.2781 10.65C11.2781 10.5 11.0531 10.05 10.9781 9.975ZM11.3531 14.325C11.5031 13.65 11.8781 13.2 11.8781 13.2L12.4031 13.725C12.3281 13.65 11.8781 14.175 11.3531 14.325ZM12.1031 12C12.1031 12 11.9531 11.325 12.1031 10.725C12.5531 11.1 12.7781 11.775 12.7781 11.775L12.1031 12ZM13.3781 13.35L13.5281 12.675C13.5281 12.675 14.1281 12.825 14.5031 13.35C14.0531 13.575 13.3781 13.35 13.3781 13.35ZM30.0281 11.475C29.6531 10.65 30.1031 9.975 31.5281 9.9C32.1281 12.375 30.3281 12.075 30.0281 11.475ZM24.7781 4.05C25.1531 4.05 25.6031 5.925 25.5281 6.6H24.0281C23.9531 5.925 24.4031 4.05 24.7781 4.05ZM18.0281 9.975C19.4531 10.05 19.8281 10.725 19.5281 11.55C19.2281 12.075 17.4281 12.375 18.0281 9.975ZM15.9281 12.675C15.7031 12.9 15.1781 12.675 15.1781 11.625C16.1531 11.925 16.1531 12.45 15.9281 12.675ZM17.7281 14.25C17.5031 13.5 16.9781 13.2 16.6781 13.05C17.2031 12.225 16.7531 11.325 15.3281 10.95C16.0031 10.125 16.4531 9.825 17.2031 9.825C16.6781 12.15 17.9531 13.275 19.6031 12.3V12.675C18.8531 12.9 18.2531 13.5 17.7281 14.25ZM18.4781 14.475C18.7031 13.95 19.6781 13.425 19.6781 13.425L19.9781 14.325C19.9781 14.4 19.2281 14.7 18.4781 14.475ZM20.2781 10.95C20.2031 10.125 20.0531 9.525 18.2531 9.15C18.8531 6.525 20.9531 6.675 21.1781 7.95C21.3281 8.85 20.1281 9.15 20.4281 7.875C20.5781 7.425 19.9031 7.2 19.6781 7.65C19.4531 8.25 19.3781 9.975 21.2531 9.225C21.1031 9.675 20.8781 9.9 21.0281 10.125C20.8781 10.275 20.5781 10.575 20.2781 10.95ZM21.1781 11.1C21.4781 11.85 21.3281 12.75 21.3281 12.75L20.4281 12.6C20.4281 12.525 20.6531 11.7 21.1781 11.1ZM21.0281 14.55L21.6281 13.875C21.6281 13.875 22.2281 14.475 22.3781 15.3C21.7031 15.225 21.0281 14.55 21.0281 14.55ZM22.0781 11.7C22.0781 11.1 21.7031 10.5 21.7031 10.5H22.6781C22.6781 10.5 22.2281 11.025 22.0781 11.7ZM21.8531 9.75C22.0781 8.625 23.5031 7.725 23.5031 7.725L24.2531 9.075C24.2531 9.075 23.2781 9.825 21.8531 9.75ZM24.7781 8.325C24.6281 8.1 24.4031 7.8 24.2531 7.425H25.2281C25.1531 7.8 24.9281 8.1 24.7781 8.325ZM25.3031 9.075L26.0531 7.725C26.0531 7.725 27.5531 8.7 27.7031 9.75C26.2781 9.825 25.3031 9.075 25.3031 9.075ZM26.8781 10.5H27.8531C27.8531 10.5 27.5531 11.1 27.4781 11.7C27.3281 11.025 26.8781 10.5 26.8781 10.5ZM27.1781 15.3C27.3281 14.475 27.9281 13.875 27.9281 13.875L28.5281 14.55C28.5281 14.55 27.8531 15.225 27.1781 15.3ZM28.2281 12.675C28.2281 12.675 28.0781 11.85 28.3781 11.025C28.9031 11.625 29.1281 12.45 29.1281 12.45L28.2281 12.675ZM28.5281 10.2C28.6781 9.975 28.4531 9.675 28.3031 9.3C30.1781 10.125 30.1031 8.4 29.8781 7.725C29.7281 7.275 29.0531 7.5 29.1281 7.95C29.4281 9.15 28.2281 8.85 28.3781 8.025C28.6031 6.75 30.7781 6.6 31.3031 9.225C29.5031 9.525 29.3531 10.2 29.2781 11.025C28.9781 10.575 28.6781 10.275 28.5281 10.2ZM29.5781 14.4L29.8781 13.5C29.8781 13.5 30.8531 13.95 31.0781 14.55C30.3281 14.7 29.5781 14.4 29.5781 14.4ZM32.8781 13.05C32.5781 13.2 32.0531 13.5 31.8281 14.25C31.3781 13.5 30.7781 12.9 29.9531 12.675V12.3C31.6031 13.275 32.9531 12.15 32.3531 9.825C33.1031 9.825 33.6281 10.125 34.2281 10.95C32.8031 11.325 32.3531 12.225 32.8781 13.05ZM33.6281 12.675C33.4031 12.45 33.4031 11.925 34.3781 11.625C34.3781 12.675 33.8531 12.9 33.6281 12.675ZM35.0531 13.35C35.5031 12.75 36.0281 12.675 36.0281 12.675L36.1781 13.35C36.1781 13.35 35.5031 13.575 35.0531 13.35ZM37.4531 10.725C37.6031 11.25 37.4531 12 37.4531 12L36.7781 11.775C36.8531 11.775 37.0031 11.1 37.4531 10.725ZM37.2281 13.65L37.7531 13.125C37.7531 13.125 38.1281 13.65 38.2781 14.25C37.6781 14.175 37.2281 13.65 37.2281 13.65ZM38.2031 10.575C38.1281 10.2 37.9781 9.975 37.9781 9.975C37.9781 9.975 38.3531 9.975 38.5031 9.9C38.5031 10.05 38.2781 10.5 38.2031 10.575ZM38.4281 9.225C38.5031 8.625 38.8781 8.25 38.8781 8.25L39.1781 8.85C39.1781 8.85 38.8031 9.225 38.4281 9.225ZM39.2531 6.975C39.2531 6.975 39.1781 6.375 39.4031 6C39.7031 6.3 39.7781 6.975 39.7781 6.975H39.2531ZM40.2281 8.7L40.3781 8.1C40.3781 8.1 40.8281 8.4 41.0531 8.925C40.6031 9 40.2281 8.7 40.2281 8.7Z" fill="white"/>
<path d="M42.9057 12.6034C42.5307 12.3784 42.3807 11.9284 42.6057 11.4784C42.8307 11.0284 43.2807 10.8784 43.6557 11.1034C44.0307 11.3284 44.1807 11.7784 43.9557 12.2284C43.7307 12.6034 43.2807 12.8284 42.9057 12.6034Z" fill="#FF5760"/>
<path d="M33.4225 14.9294C32.9725 15.5294 32.2975 15.6794 31.8475 15.3044C31.3975 14.9294 31.3975 14.1794 31.7725 13.5794C32.2225 12.9794 32.8975 12.8294 33.3475 13.2044C33.8725 13.5794 33.8725 14.4044 33.4225 14.9294Z" fill="#FF5760"/>
<path d="M40.5255 11.8926C40.6755 13.0176 40.1505 14.0676 39.3255 14.2176C38.5005 14.3676 37.6755 13.5426 37.5255 12.3426C37.3755 11.2176 37.9005 10.1676 38.7255 10.0176C39.5505 9.86759 40.3755 10.6926 40.5255 11.8926Z" fill="#FF5760"/>
<path d="M5.65571 12.5898C6.03071 12.3648 6.10571 11.9148 5.95571 11.4648C5.73071 11.0898 5.28071 10.8648 4.90571 11.0898C4.53072 11.3148 4.38072 11.7648 4.60572 12.2148C4.83072 12.5898 5.28071 12.8148 5.65571 12.5898Z" fill="#FF5760"/>
<path d="M23.75 15.7C24.9926 15.7 26 14.424 26 12.85C26 11.276 24.9926 10 23.75 10C22.5074 10 21.5 11.276 21.5 12.85C21.5 14.424 22.5074 15.7 23.75 15.7Z" fill="#FF5760"/>
<path d="M14.8287 14.9294C15.2787 15.5294 15.9537 15.6794 16.4037 15.3044C16.8537 14.9294 16.8537 14.1794 16.4787 13.5794C16.0287 12.9794 15.3537 12.8294 14.9037 13.2044C14.3787 13.5794 14.3787 14.4044 14.8287 14.9294Z" fill="#FF5760"/>
<path d="M7.52554 11.8926C7.37554 13.0176 7.90054 14.0676 8.72554 14.2176C9.55054 14.3676 10.3755 13.5426 10.5255 12.3426C10.6755 11.2176 10.1505 10.1676 9.32554 10.0176C8.50054 9.86759 7.67554 10.6926 7.52554 11.8926Z" fill="#FF5760"/>
</svg>
