<svg width="49" height="48" viewBox="0 0 49 48" fill="none" xmlns="http://www.w3.org/2000/svg">
<path d="M6.5 28.25H41.975C41.975 9.125 39.275 5 24.2 5C9.275 5.075 6.5 9.125 6.5 28.25Z" fill="#DBB471"/>
<path d="M40.825 24.4973C40.675 25.2473 40.525 25.9223 40.375 26.2973C40 26.9723 39.25 27.4223 39.25 27.4223C39.25 27.4223 39.475 25.9973 39.4 23.9723C38.575 12.1223 37.9 15.4223 24.625 15.4223C11.35 15.4223 10.675 12.1973 9.85 23.9723C9.775 25.9973 10 27.4223 10 27.4223C10 27.4223 9.25 27.0473 8.8 26.2973C8.575 25.9223 8.425 25.2473 8.35 24.4973C7.075 24.1973 5.5 24.4223 5.5 28.0223C5.5 30.1973 6.325 32.0723 9.1 32.2223C10 39.1973 14.05 42.7973 20.875 45.7973C22.75 46.6223 26.575 46.6223 28.375 45.7973C35.2 42.7223 39.25 39.1973 40.15 32.2223C42.925 31.9973 43.75 30.1973 43.75 28.0223C43.675 24.4973 42.025 24.1973 40.825 24.4973Z" fill="#FED0AC"/>
<path d="M30.8 37.675C30.8 40.225 27.725 41.5 24.65 41.5C21.575 41.5 18.5 40.225 18.5 37.675C18.5 37.675 18.5 37 19.1 37H30.125C30.8 37 30.8 37.675 30.8 37.675Z" fill="#664E27"/>
<path d="M16.3 24C12.925 24 11.5 25.275 11.5 26.475C11.5 27.675 11.5 29.475 16 29.475C20.35 29.475 21.025 28.95 21.025 27.075C21.1 25.875 19.675 24 16.3 24Z" fill="#F5F5F5"/>
<path d="M19.65 26.075C19.65 27.8 18.3 29.15 16.575 29.15C14.85 29.15 13.5 27.8 13.5 26.075C13.5 24.35 14.85 23 16.575 23C18.3 23 19.65 24.425 19.65 26.075Z" fill="#664E27"/>
<path d="M17.6 26.05C17.6 26.65 17.15 27.1 16.55 27.1C15.95 27.1 15.5 26.65 15.5 26.05C15.5 25.45 15.95 25 16.55 25C17.15 25.075 17.6 25.525 17.6 26.05Z" fill="#231F20"/>
<path d="M11.5 26.5198C11.5 21.7198 21.1 21.7198 21.1 27.1948C19.675 23.0698 12.85 23.0698 11.5 26.5198Z" fill="#664E27"/>
<path d="M32.225 24C35.675 24 37.025 25.275 37.025 26.475C37.025 27.675 37.025 29.475 32.525 29.475C28.175 29.475 27.5 28.95 27.5 27.075C27.5 25.875 28.85 24 32.225 24Z" fill="#F5F5F5"/>
<path d="M29.5 26.075C29.5 27.8 30.85 29.15 32.575 29.15C34.3 29.15 35.65 27.8 35.65 26.075C35.65 24.35 34.3 23 32.575 23C30.85 23 29.5 24.425 29.5 26.075Z" fill="#664E27"/>
<path d="M31.5 26.05C31.5 26.65 31.95 27.1 32.55 27.1C33.15 27.1 33.6 26.65 33.6 26.05C33.6 25.45 33.15 25 32.55 25C31.95 25.075 31.5 25.525 31.5 26.05Z" fill="#231F20"/>
<path d="M37.1 26.5198C37.1 21.7198 27.5 21.7198 27.5 27.1948C28.925 23.0698 35.75 23.0698 37.1 26.5198Z" fill="#664E27"/>
<path d="M24.4766 35.25C22.0016 35.25 20.7266 33 22.0016 33H27.0266C28.2266 33 26.9516 35.25 24.4766 35.25Z" fill="#E0A372"/>
<path d="M17.5 6L14.5 3L11.5 6H13V9H17.5V6Z" fill="#D9A000"/>
<path d="M38.5 6L35.5 3L32.5 6V9H37V6H38.5Z" fill="#D9A000"/>
<path d="M41.5 12.4813H8.5C8.5 2.50625 41.5 2.50625 41.5 12.4813Z" fill="#9450E0"/>
<path d="M36.5 12.0187H9.5C9.5 3.99375 36.5 3.99375 36.5 12.0187Z" fill="#7E44BF"/>
<path d="M6.5 15H42.5V19.5H6.5V15Z" fill="#D9A000"/>
<path d="M38.5 7L40 8.5V10H28V8.5L29.5 7L25 1L20.5 7L22 8.5V10H10V8.5L11.5 7L5.5 2.425L7 17.5H43L44.5 2.425L38.5 7Z" fill="#FFCE31"/>
<path d="M24.5 16.325V14H26L24.5 16.325Z" fill="#66CAF2"/>
<path d="M25 16.325L23.5 14H25V16.325Z" fill="#428BC1"/>
<path d="M27 14.175H25.5V12L27 14.175Z" fill="#428BC1"/>
<path d="M24 12V14.175H22.5L24 12Z" fill="#66CAF2"/>
<path d="M11.5 16.325V14H12.925L11.5 16.325Z" fill="#66CAF2"/>
<path d="M12.075 16.325L10.5 14H12.075V16.325Z" fill="#428BC1"/>
<path d="M13.925 14.175H12.5V12L13.925 14.175Z" fill="#428BC1"/>
<path d="M12.075 12V14.175H10.5L12.075 12Z" fill="#66CAF2"/>
<path d="M18.5 16.325V14H20L18.5 16.325Z" fill="#66CAF2"/>
<path d="M18 16.325L16.5 14H18V16.325Z" fill="#428BC1"/>
<path d="M20 14.175H18.5V12L20 14.175Z" fill="#428BC1"/>
<path d="M18 12V14.175H16.5L18 12Z" fill="#66CAF2"/>
<path d="M30.5 16.325V14H32L30.5 16.325Z" fill="#66CAF2"/>
<path d="M31 16.325L29.5 14H31V16.325Z" fill="#428BC1"/>
<path d="M33 14.175H31.5V12L33 14.175Z" fill="#428BC1"/>
<path d="M31 12V14.175H29.5L31 12Z" fill="#66CAF2"/>
<path d="M37.5 16.325V14H39L37.5 16.325Z" fill="#66CAF2"/>
<path d="M37 16.325L35.5 14H37V16.325Z" fill="#428BC1"/>
<path d="M39 14.175H37.5V12L39 14.175Z" fill="#428BC1"/>
<path d="M37 12V14.175H35.5L37 12Z" fill="#66CAF2"/>
<path d="M7 16.325L5.5 14H7V16.325Z" fill="#428BC1"/>
<path d="M7 12V14.175H5.5L7 12Z" fill="#66CAF2"/>
<path d="M43.5 16.325V14H45L43.5 16.325Z" fill="#66CAF2"/>
<path d="M44 14.175H42.5V12L44 14.175Z" fill="#428BC1"/>
</svg>
