<svg width="49" height="48" viewBox="0 0 49 48" fill="none" xmlns="http://www.w3.org/2000/svg">
<path d="M43.3983 19.15C43.3983 19.15 41.1483 21.25 37.3233 23.725C36.2733 17.65 33.3483 10.15 27.6483 1C27.6483 1 25.7733 10.825 19.5483 20.05C16.8483 15.85 15.6483 12.55 15.6483 12.55C-3.85172 32.125 12.3483 46 22.5483 46C35.5983 46 47.0733 39.7 43.3983 19.15Z" fill="#FF9D33"/>
<path d="M35.25 36.825C36.375 34.35 37.2 31.125 37.35 27.075C37.35 27.075 35.775 28.425 33.075 30.15C32.325 26.1 30.3 21.15 26.325 15C26.325 15 25.05 21.525 20.7 27.75C18.825 24.975 18 22.725 18 22.725C14.775 27.825 13.5 31.875 13.425 35.1C11.625 34.425 10.5 33.9 10.5 33.9C13.575 43.05 19.95 45.075 22.8 45.075C27.9 45.075 33.075 43.575 38.175 36.3C38.175 36.225 37.05 36.525 35.25 36.825Z" fill="#FFCE31"/>
<path d="M17.1223 33.175C17.1223 33.175 19.2223 36.025 20.7973 35.35C20.7973 35.35 23.7973 30.625 28.1473 28C28.1473 28 27.2473 35.2 28.2973 36.475C29.6473 38.2 33.3223 34.6 33.3223 34.6C33.3223 38.875 28.6723 44.2 24.4723 44.2C20.4223 44.2 14.5723 39.55 17.1223 33.175Z" fill="#FFDF85"/>
<path d="M38.0862 13.65C39.6612 11.4 40.7112 9 40.7112 9C43.3362 13.35 41.7612 15.975 40.6362 16.8C39.0612 18 36.2862 16.275 38.0862 13.65Z" fill="#FF9D33"/>
<path d="M9.63696 12.925C8.06196 10.3 7.91196 7 7.91196 7C4.16197 12.625 5.58696 15.775 6.86196 16.675C8.51196 17.95 11.362 16 9.63696 12.925Z" fill="#FF9D33"/>
<path d="M18.025 6.6C18.25 4.8 17.5 3 17.5 3C21.025 5.325 21.025 7.275 20.575 8.1C19.9 9.075 17.8 8.625 18.025 6.6Z" fill="#FF9D33"/>
</svg>
