<svg width="49" height="48" viewBox="0 0 49 48" fill="none" xmlns="http://www.w3.org/2000/svg">
<path d="M24.3599 20.7619C24.3599 20.7619 21.0599 21.4369 23.7599 15.8119C25.7099 11.7619 25.4849 7.03687 23.7599 4.56187C20.9099 0.586869 15.4349 1.86187 16.0349 4.18687C17.9849 12.0619 13.5599 14.4619 11.3099 19.4119C8.98494 24.4369 9.20994 31.6369 10.2599 38.0119C10.9349 41.9869 12.6599 46.9369 18.8849 46.9369H27.5099L24.3599 20.7619Z" fill="#FFE1BD"/>
<path d="M19.8538 45.65C13.6288 45.65 12.2788 40.7 11.6038 36.725C10.5538 30.35 10.4038 25.25 12.4288 20.075C14.6788 14.45 17.0038 14.3 17.0038 3.2C17.0038 2.675 17.3038 2.3 17.6038 2C16.5538 2.375 15.9538 2.975 15.9538 3.875C15.9538 12.2 13.6288 14.225 11.3788 19.25C8.97879 24.275 9.20379 31.475 10.2538 37.85C10.9288 41.825 12.6538 46.775 18.8788 46.775H27.5038V45.65H19.8538Z" fill="#E6B796"/>
<path d="M34.9625 26.525H24.3125C20.5625 26.525 20.5625 20 24.3125 20H34.9625C38.7125 20 38.7125 26.525 34.9625 26.525Z" fill="#FFE1BD"/>
<path d="M35.8098 25.875H25.1599C22.6099 25.875 21.8598 22.875 22.6848 21C20.6598 22.575 21.2599 27 24.2599 27H34.9848C36.1848 27 37.0098 26.325 37.4598 25.35C37.0098 25.65 36.4848 25.875 35.8098 25.875Z" fill="#E6B796"/>
<path d="M36.625 33.525H23.875C19.375 33.525 19.375 27 23.875 27H36.7C41.125 27 41.125 33.525 36.625 33.525Z" fill="#FFE1BD"/>
<path d="M37.6594 31.875H24.8344C21.8344 31.875 20.8594 28.875 21.9094 27C19.5094 28.575 20.1844 33 23.8594 33H36.6844C38.1094 33 39.0844 32.325 39.6094 31.35C39.0844 31.65 38.4094 31.875 37.6594 31.875Z" fill="#E6B796"/>
<path d="M35.1125 39.525H24.3125C20.5625 39.525 20.5625 33 24.3125 33H35.1125C38.9375 33 38.9375 39.525 35.1125 39.525Z" fill="#FFE1BD"/>
<path d="M36.0514 38.95H25.1764C22.6264 38.95 21.8014 35.95 22.7014 34C20.6764 35.575 21.2014 40 24.3514 40H35.1514C36.3514 40 37.1764 39.325 37.6264 38.35C37.2514 38.8 36.6514 38.95 36.0514 38.95Z" fill="#E6B796"/>
<path d="M33.5125 46.525H26.5375C22.4875 46.525 22.4875 40 26.5375 40H33.5125C37.5625 40 37.5625 46.525 33.5125 46.525Z" fill="#FFE1BD"/>
<path d="M34.3831 44.95H27.4081C24.7081 44.95 23.8081 41.95 24.7831 40C22.6081 41.575 23.2081 46 26.5081 46H33.4831C34.8331 46 35.6581 45.325 36.1081 44.35C35.6581 44.725 35.0581 44.95 34.3831 44.95Z" fill="#E6B796"/>
</svg>
