<svg width="37" height="36" viewBox="0 0 37 36" fill="none" xmlns="http://www.w3.org/2000/svg">
<g clip-path="url(#clip0)">
<path d="M36.27 11.868C36.27 6.418 31.852 2 26.403 2C23.095 2 20.176 3.633 18.385 6.129C16.594 3.633 13.675 2 10.368 2C4.918 2 0.5 6.417 0.5 11.868C0.5 12.64 0.598 13.388 0.766 14.109C2.136 22.622 11.601 31.603 18.385 34.069C25.168 31.603 34.634 22.622 36.002 14.11C36.172 13.389 36.27 12.641 36.27 11.868Z" fill="#DD2E44"/>
<path d="M34.5094 23.8944L30.6854 22.4784L29.2694 18.6544C29.1986 18.4626 29.0708 18.2972 28.9032 18.1802C28.7355 18.0633 28.5361 18.0006 28.3317 18.0005C28.1273 18.0004 27.9278 18.0629 27.7601 18.1796C27.5923 18.2964 27.4643 18.4617 27.3934 18.6534L25.9774 22.4774L22.1534 23.8934C21.9621 23.9646 21.7972 24.0927 21.6807 24.2603C21.5643 24.428 21.5019 24.6272 21.5019 24.8314C21.5019 25.0355 21.5643 25.2347 21.6807 25.4024C21.7972 25.57 21.9621 25.6981 22.1534 25.7694L25.9774 27.1854L27.3934 31.0094C27.4642 31.2011 27.5921 31.3665 27.7598 31.4833C27.9275 31.6001 28.127 31.6627 28.3314 31.6627C28.5357 31.6627 28.7352 31.6001 28.9029 31.4833C29.0706 31.3665 29.1985 31.2011 29.2694 31.0094L30.6854 27.1854L34.5094 25.7694C34.7003 25.6979 34.8649 25.5698 34.9811 25.4023C35.0973 25.2348 35.1595 25.0357 35.1595 24.8319C35.1595 24.628 35.0973 24.429 34.9811 24.2614C34.8649 24.0939 34.7003 23.9658 34.5094 23.8944ZM11.5094 7.89336L9.14437 7.01836L8.26937 4.65336C8.19852 4.46166 8.07063 4.29626 7.90293 4.17944C7.73522 4.06262 7.53575 4 7.33136 4C7.12698 4 6.92751 4.06262 6.7598 4.17944C6.5921 4.29626 6.46421 4.46166 6.39336 4.65336L5.51736 7.01836L3.15336 7.89336C2.96166 7.96421 2.79626 8.0921 2.67944 8.2598C2.56262 8.42751 2.5 8.62698 2.5 8.83137C2.5 9.03575 2.56262 9.23522 2.67944 9.40293C2.79626 9.57063 2.96166 9.69852 3.15336 9.76936L5.51836 10.6444L6.39336 13.0094C6.46421 13.2011 6.5921 13.3665 6.7598 13.4833C6.92751 13.6001 7.12698 13.6627 7.33136 13.6627C7.53575 13.6627 7.73522 13.6001 7.90293 13.4833C8.07063 13.3665 8.19852 13.2011 8.26937 13.0094L9.14437 10.6444L11.5094 9.76936C11.7011 9.69852 11.8665 9.57063 11.9833 9.40293C12.1001 9.23522 12.1627 9.03575 12.1627 8.83137C12.1627 8.62698 12.1001 8.42751 11.9833 8.2598C11.8665 8.0921 11.7011 7.96421 11.5094 7.89336Z" fill="#FDCB58"/>
</g>
<defs>
<clipPath id="clip0">
<rect width="36" height="36" fill="white" transform="translate(0.5)"/>
</clipPath>
</defs>
</svg>
