<svg width="21" height="26" viewBox="0 0 21 26" fill="none" xmlns="http://www.w3.org/2000/svg">
<path d="M11.3427 4.83555L9.6324 4.83205C5.73114 4.82272 2.34436 7.9925 2.31753 11.8319V16.2535C2.31753 17.1752 2.20086 18.0747 1.69804 18.8411L1.36321 19.3521C0.853387 20.1268 1.40171 21.1651 2.31753 21.1651H18.6856C19.6014 21.1651 20.1486 20.1268 19.6399 19.3521L19.3051 18.8411C18.8034 18.0747 18.6856 17.174 18.6856 16.2523V11.8331C18.6389 7.9925 15.244 4.84488 11.3427 4.83555V4.83555Z" stroke="#262626" stroke-width="2" stroke-linecap="round" stroke-linejoin="round"/>
<path d="M14.0038 21.1641C14.0038 22.0923 13.635 22.9825 12.9787 23.6389C12.3223 24.2953 11.4321 24.664 10.5038 24.664C9.5756 24.664 8.68538 24.2953 8.02901 23.6389C7.37265 22.9825 7.00391 22.0923 7.00391 21.1641" stroke="#262626" stroke-width="2" stroke-linecap="round" stroke-linejoin="round"/>
<path d="M10.5013 1.33203C11.1201 1.33203 11.7136 1.57786 12.1511 2.01544C12.5887 2.45301 12.8346 3.0465 12.8346 3.66532V4.83197H8.16797V3.66532C8.16797 3.0465 8.4138 2.45301 8.85137 2.01544C9.28895 1.57786 9.88243 1.33203 10.5013 1.33203Z" stroke="#262626" stroke-width="2" stroke-linecap="round" stroke-linejoin="round"/>
</svg>
